<svg xmlns="http://www.w3.org/2000/svg" xmlns:xlink="http://www.w3.org/1999/xlink" viewBox="0 0 735.53 492.4"><defs><style>.cls-1{fill:#7fceff;}.cls-15,.cls-2{fill:#5f4348;}.cls-2{opacity:0.2;}.cls-3{fill:#fff;}.cls-4{fill:#8d9294;}.cls-5{fill:#a4a8a9;}.cls-6{opacity:0.7;}.cls-7{fill:#ffdec1;}.cls-8{fill:#47494a;}.cls-9{fill:#a36632;}.cls-10{fill:#d99900;}.cls-11,.cls-12,.cls-26{fill:none;}.cls-11,.cls-12{stroke:#a36632;stroke-linecap:round;stroke-linejoin:round;stroke-width:2px;}.cls-11{stroke-dasharray:3 4;}.cls-13{fill:#aadeff;}.cls-14{fill:#687a85;}.cls-16{fill:#733243;}.cls-16,.cls-27{opacity:0.5;}.cls-17{fill:#f7debf;}.cls-18{clip-path:url(#clip-path);}.cls-19,.cls-28{fill:#155780;}.cls-20{fill:#e9bf9e;}.cls-21,.cls-27{fill:#43424c;}.cls-22{fill:#e78469;}.cls-23{fill:#877175;}.cls-24{fill:#2082bf;}.cls-25{fill:#cedbe3;}.cls-28{font-size:34px;font-family:Fabada, Fabada;}</style><clipPath id="clip-path" transform="translate(-10.96 -181.24)"><path id="_Clipping_Path_" data-name="&lt;Clipping Path&gt;" class="cls-1" d="M541.21,361.07s-3.36,10.11-1.62,13.94C560.35,386.18,663,403,738,356c0,0,.07-8.3-3.47-11C734.53,345,649.21,389.07,541.21,361.07Z"/></clipPath></defs><title>2 men banner illustration</title><g id="Background"><path class="cls-2" d="M256.7,643.23c-8-8-20.11-8-30.61-7.88-15.26.22-30.43-1-45.64-1.76-2.42-1-42.17.73-47.39,2.24-1.6.17-43.49,1.35-51.06,17.44-2.69,5.72,2.69,12,8.27,12.57,27.68,2.66,55.8,4.31,83.62,4.42,21.55.08,44,2.92,65.06-3.21a59.41,59.41,0,0,0,14.28-6.19C259.47,657.09,262.56,649.07,256.7,643.23Z" transform="translate(-10.96 -181.24)"/><path class="cls-2" d="M727.71,628.06c-4.23-3.4-10.4-3.73-15.58-4.26-7.28-.75-15.44,1.35-22.61,2.44a67.67,67.67,0,0,1-24.44-.53c-7.88-1.59-15.67-1.53-23.67-1.51a196.11,196.11,0,0,0-22.81,1.09c-5.24.21-10.47.66-15.68,1.31-9.3,1.16-33,1.31-29.53,16.61,1.62,7.09,8.88,9.52,14.79,12.1a94.71,94.71,0,0,0,16.91,5.4,202.5,202.5,0,0,0,37.79,4.89,211.21,211.21,0,0,0,37.21-2c10.15-1.42,20.74-2.81,30.64-5.48a48.29,48.29,0,0,0,16.11-7.75A13.83,13.83,0,0,0,727.71,628.06Z" transform="translate(-10.96 -181.24)"/><path class="cls-2" d="M508.78,627.54c-5.7-2.6-12.29-2.84-18.45-2.64q-3.81.12-7.62.31l-2.2-.29c-9.42-1.29-18.86-2.47-28.32-3.39-20.4-2-40.77-.21-61.11,1.66-5,.46-10,.92-15,1.35-2.11.18-4.2.42-6.3.65-.42,0-4.23.31-3.7.3-7.61.34-15.25.13-22.87.15-16.24,0-34,.39-48.54,8.49-8.72,4.84-11.78,19.19-1.67,24.78,24.75,13.7,52.58,15.28,80.27,14.51,13.23-.36,26.45-1.12,39.7-.92,14.48.22,28.74,1.59,43.26,1,8.2-.35,16.38-1,24.54-1.77l1.92-.2q-2.34,0-.89,0c.6,0,1.2,0,1.8-.08,2.8-.14,5.59-.3,8.38-.59,8.75-.93,18.38-3,25.21-8.9C529.94,651,521.81,633.47,508.78,627.54Z" transform="translate(-10.96 -181.24)"/></g><g id="Objects"><path class="cls-3" d="M500.35,634.58c-38.39,22.68-152.39,20.36-191.07,0v-267c3.49,21.23,180.6,20.07,191.07,0Z" transform="translate(-10.96 -181.24)"/><path class="cls-4" d="M406,356.12V356h-1v.12c-24.72,0-95,.88-95,12.31,0,20.37,88.28,20.29,95.18,20.25s95.46.11,95.46-20.26C500.63,357,431,356.13,406,356.12Z" transform="translate(-10.96 -181.24)"/><path class="cls-5" d="M501.11,379.4h0c-18.21,18.54-182.32,11.72-191.83,0h0V368h0c13.69,14.36,166.58,17.66,191.83,0h0Z" transform="translate(-10.96 -181.24)"/><g class="cls-6"><path class="cls-4" d="M500.73,592.17h0c-9,9.36-53.59,20.52-97.56,19.75-45.05-.79-89.46-13.69-94.27-19.75h0V409h0c13.69,14.68,166.58,18.05,191.83,0h0Z" transform="translate(-10.96 -181.24)"/></g><path class="cls-7" d="M500.73,590.14h0c-9,9.16-53.59,20.07-97.56,19.32-45.05-.77-89.46-13.39-94.27-19.32h0V410.93h0c13.69,14.36,166.58,17.66,191.83,0h0Z" transform="translate(-10.96 -181.24)"/><path class="cls-5" d="M501.11,634.39h0c-8.89,9.05-52.55,20-96,19.35-45.58-.69-90.94-13.35-95.81-19.35h0V622.95h0c5.58,5.85,18,8.54,31.2,11.8,48,11.83,131.34,8.68,160.63-11.8h0Z" transform="translate(-10.96 -181.24)"/><path class="cls-8" d="M392.68,361a63.42,63.42,0,0,0-10.2-.16l34.44,11.92s9.71.21,10.6,0S392.68,361,392.68,361Z" transform="translate(-10.96 -181.24)"/><path class="cls-9" d="M480.89,318.92c-3.78-20-16.14-27.34-27.75-25-5.81,1.15-13.08,5.26-15.87,11.41h0c2.89-4.74,7.13-8.09,12.26-9.11,11.62-2.31,23.38,8.22,26.27,23.51,2.73,14.42-3.41,27.93-13.87,31.35a16.57,16.57,0,0,0,2-.26C475.49,348.49,483.78,334.21,480.89,318.92Z" transform="translate(-10.96 -181.24)"/><path class="cls-10" d="M447.3,315.58c-1.1,2.7,0,4.29,1.85,5.37-.15-2.46-.31-4.93-.51-7.38A5.65,5.65,0,0,0,447.3,315.58Z" transform="translate(-10.96 -181.24)"/><path class="cls-10" d="M452.43,312.4a7.73,7.73,0,0,0-1.21,0,89,89,0,0,1,1.08,9.88l.63.21C452.75,319.12,452.43,315.77,452.43,312.4Z" transform="translate(-10.96 -181.24)"/><path class="cls-10" d="M475.79,319.71c-2.89-15.29-14.65-25.82-26.27-23.51-5.13,1-9.37,4.37-12.26,9.11-3.66,6-5.15,14.21-3.54,22.75,2.89,15.29,14.65,25.81,26.27,23.51a16.63,16.63,0,0,0,1.92-.51C472.38,347.64,478.52,334.13,475.79,319.71Z" transform="translate(-10.96 -181.24)"/><path class="cls-11" d="M472.13,320.71c-2.51-13.29-12.74-22.44-22.84-20.44a16.34,16.34,0,0,0-10.66,7.92c-3.18,5.21-4.48,12.36-3.07,19.78,2.51,13.29,12.74,22.44,22.84,20.44a14.45,14.45,0,0,0,1.67-.44C469.17,345,474.51,333.26,472.13,320.71Z" transform="translate(-10.96 -181.24)"/><path class="cls-12" d="M468.24,321.87c-2-10.83-10.37-18.28-18.6-16.64a13.31,13.31,0,0,0-8.68,6.45,23,23,0,0,0-2.5,16.11c2,10.83,10.37,18.28,18.6,16.64a11.77,11.77,0,0,0,1.36-.36C465.82,341.64,470.17,332.08,468.24,321.87Z" transform="translate(-10.96 -181.24)"/><path class="cls-10" d="M457.45,328.16c-.45-.25-.92-.47-1.39-.68.22,2.42.46,4.83.82,7.23C460.8,334.07,460.69,330,457.45,328.16Z" transform="translate(-10.96 -181.24)"/><path class="cls-9" d="M347.57,278c3.21-17,13.69-23.18,23.53-21.23,4.92,1,11.09,4.46,13.45,9.67h0a15.94,15.94,0,0,0-10.4-7.72c-9.85-2-19.82,7-22.27,19.93-2.31,12.23,2.89,23.68,11.76,26.58a14,14,0,0,1-1.66-.22C352.14,303.12,345.12,291,347.57,278Z" transform="translate(-10.96 -181.24)"/><path class="cls-10" d="M376,275.22a3.28,3.28,0,0,1-1.57,4.55c.13-2.09.26-4.18.43-6.26A4.79,4.79,0,0,1,376,275.22Z" transform="translate(-10.96 -181.24)"/><path class="cls-10" d="M371.69,272.52a6.55,6.55,0,0,1,1,0,75.46,75.46,0,0,0-.92,8.38l-.53.18C371.43,278.22,371.69,275.38,371.69,272.52Z" transform="translate(-10.96 -181.24)"/><path class="cls-10" d="M363.65,305.3a14.1,14.1,0,0,0,1.63.43c9.85,2,19.82-7,22.27-19.93,1.37-7.24.1-14.21-3-19.29a15.94,15.94,0,0,0-10.4-7.72c-9.85-2-19.82,7-22.27,19.93C349.58,290.95,354.78,302.4,363.65,305.3Z" transform="translate(-10.96 -181.24)"/><path class="cls-11" d="M365.21,302.68a12.26,12.26,0,0,0,1.42.38c8.56,1.7,17.24-6.06,19.37-17.33A24,24,0,0,0,383.39,269a13.86,13.86,0,0,0-9-6.71c-8.56-1.7-17.23,6.06-19.36,17.33C353,290.21,357.5,300.16,365.21,302.68Z" transform="translate(-10.96 -181.24)"/><path class="cls-12" d="M366.62,299.37a10,10,0,0,0,1.15.31c7,1.38,14-4.93,15.77-14.11a19.51,19.51,0,0,0-2.12-13.66,11.28,11.28,0,0,0-7.36-5.47c-7-1.38-14,4.93-15.77,14.11C356.65,289.21,360.34,297.32,366.62,299.37Z" transform="translate(-10.96 -181.24)"/><path class="cls-10" d="M367.44,285.88c.38-.21.78-.4,1.18-.58-.19,2.06-.39,4.1-.69,6.13C364.6,290.89,364.69,287.41,367.44,285.88Z" transform="translate(-10.96 -181.24)"/><path class="cls-7" d="M436.5,286.89c4.06-9.38,17.06-6.52,26.47-4.34a14.79,14.79,0,0,1,2.88.26,2,2,0,0,1,1.18.66l.86.17.86,10.51,1,.16a12.64,12.64,0,0,0-5.08,1c-1.75.83-3.09,2.55-4.58,3.75-1.91,1.54-4.42,3-6.93,1.94-1.71-.69-2.28-2.36-2.26-4.08,0-.86.17-1.72.23-2.58a2,2,0,0,0-.14-1.05c-3.22,3.11-8.1,7.87-12.51,5.56C433.84,296.46,434.76,290.92,436.5,286.89Z" transform="translate(-10.96 -181.24)"/><path class="cls-1" d="M467.89,283.64l-.09-1.09c28.58-1.75,127,16.5,127,16.5l11.59,18.74L469.73,294.31l-1-.16Z" transform="translate(-10.96 -181.24)"/><path class="cls-13" d="M736.31,354.17a44.4,44.4,0,0,0-2.67-7c-8.75,3.45-97.09,36.82-191.9,16.19l-.06-.25c-3.46,14.79-10.59,62.83,17.2,140,0,0,.81.15,2.34.4,14,2.28,89.51,12.75,173.5-9.87l3.63-1S757.93,429.07,736.31,354.17Z" transform="translate(-10.96 -181.24)"/><path class="cls-14" d="M561.23,503.51c4.91,6.68,22.06,26.25,60.27,35.88,0,0,8.1,24.94,12.5,38.94C638.62,593,645,616,645,616h11s-10-49.5-13-78c13.52-1,10.83-.43,15.32-1.43,0,0,5.08,21.07,9,39.1,2.33,10.67,8.17,39.33,8.17,39.33H685s-6-67-7-81c0,0,43.67-9.67,60-40.5l-3.27.14C650.75,516.26,575.28,505.79,561.23,503.51Z" transform="translate(-10.96 -181.24)"/><path class="cls-15" d="M645,616s3.75,7,3.75,12.25-12,10.25-3.75,13.25,13.75-6,14.75-12.25-4-14.26-4-14.26Z" transform="translate(-10.96 -181.24)"/><path class="cls-15" d="M675.5,615s2.25,8,2.25,13.25-12,10.25-3.75,13.25,13.75-6,14.75-12.25-4-14.26-4-14.26Z" transform="translate(-10.96 -181.24)"/><path class="cls-16" d="M632.74,388.53s-39.07,22.38-63.14,28.26a62,62,0,0,1-30.56-.73c0,.4,0,.8,0,1.2.16,4.47.64,9.11.7,13.65a75.42,75.42,0,0,0,30.56.29c26.42-5,82.63-36.19,82.63-36.19Z" transform="translate(-10.96 -181.24)"/><path class="cls-17" d="M487.65,372.17c-1.56-1.28-3.54-2.5-5.2-1.59-2,1.1-2,3.66-1.76,5.83-3.31-.81-8-3.73-10,.32-1.22,2.52,1.41,4.88,3.67,6.69-2.5.29-5.51,1-4.94,3.17.89,3.43,15.1,5.37,15.1,5.37s10.23-4.87,10.54-5.5c2.05-4.16,3.13-13.68-.78-17.42C491,365.91,488.64,369,487.65,372.17Z" transform="translate(-10.96 -181.24)"/><path class="cls-13" d="M495.21,386.59s36.4,34.47,74.39,25.19c24.08-5.88,63.14-28.26,63.14-28.26l20.19,9.88s-56.21,27.81-82.63,32.79S516.7,424,484.54,392" transform="translate(-10.96 -181.24)"/><path id="_Clipping_Path_2" data-name="&lt;Clipping Path&gt;" class="cls-1" d="M541.21,361.07s-3.36,10.11-1.62,13.94C560.35,386.18,663,403,738,356c0,0,.07-8.3-3.47-11C734.53,345,649.21,389.07,541.21,361.07Z" transform="translate(-10.96 -181.24)"/><g class="cls-18"><path class="cls-19" d="M552.08,358c-3.67,9.13-6.27,19-5.9,28.89a1.33,1.33,0,0,0,2.65.2c1.56-9.53,2.88-18.95,6.1-28.11C555.57,357.15,552.8,356.22,552.08,358Z" transform="translate(-10.96 -181.24)"/><path class="cls-19" d="M561.73,360.89c-2.07,9.05-4.82,18.5-4,27.85a1.32,1.32,0,0,0,2.52.19c2-8.87,3.12-17.92,5-26.82C565.77,359.79,562.27,358.52,561.73,360.89Z" transform="translate(-10.96 -181.24)"/><path class="cls-19" d="M572.84,361.93a167.76,167.76,0,0,0-3.88,27c-.13,2,2.77,2.17,3.08.23,1.36-8.68,2.23-17.45,4.12-26C576.64,360.89,573.35,359.71,572.84,361.93Z" transform="translate(-10.96 -181.24)"/><path class="cls-19" d="M581.38,365.94a138.33,138.33,0,0,0-2.5,28c0,1.21,1.92,1.78,2.2.45,1.9-9.16,1.75-18.56,3.64-27.74C585.11,364.72,581.77,364,581.38,365.94Z" transform="translate(-10.96 -181.24)"/><path class="cls-19" d="M590.73,365.87a142.64,142.64,0,0,0-3.23,30.52,1.51,1.51,0,0,0,3,.23c1.2-10.18,1.89-20.39,3.77-30.48C594.7,363.86,591.17,363.66,590.73,365.87Z" transform="translate(-10.96 -181.24)"/><path class="cls-19" d="M600.05,368.85c-1.08,9.66-3.33,19.27-3.29,29a1.74,1.74,0,0,0,3.47.26c1.25-9.65,2.74-19.3,3.71-29C604.2,366.63,600.33,366.36,600.05,368.85Z" transform="translate(-10.96 -181.24)"/><path class="cls-19" d="M611.59,367.86c-.93,9.64-2.19,19.74-.86,29.38.21,1.52,2.35,1.24,2.55-.14,1.38-9.54,1.18-19.34,2.12-29C615.65,365.68,611.83,365.4,611.59,367.86Z" transform="translate(-10.96 -181.24)"/><path class="cls-19" d="M630.77,364.17c-.27-2.33-3.71-1.6-3.53.66.77,9.65.5,19.39,1.46,29,.21,2.13,3.45,1.81,3.64-.2C633.24,383.93,631.87,373.81,630.77,364.17Z" transform="translate(-10.96 -181.24)"/><path class="cls-19" d="M646.5,365.63c-.13-2.29-4.14-2.07-4,.22.48,9.34.87,18.68,1.25,28,.09,2.23,3.46,2.61,3.54.27C647.6,384.61,647.06,375.13,646.5,365.63Z" transform="translate(-10.96 -181.24)"/><path class="cls-19" d="M656.51,365.65c0-2.57-4-2.9-4-.3,0,10.52.56,21.17,3,31.44a1.58,1.58,0,0,0,3.11-.58C657.92,386,656.62,375.89,656.51,365.65Z" transform="translate(-10.96 -181.24)"/><path class="cls-19" d="M668,365.12c-.42-2.63-4.4-1.85-4,.75,1.41,10,1.75,20.68,4.58,30.39a1.47,1.47,0,0,0,2.9-.16C672.27,385.89,669.61,375.19,668,365.12Z" transform="translate(-10.96 -181.24)"/><path class="cls-19" d="M685.44,389.64c-.94-8.86-2.86-17.65-4-26.5-.33-2.53-4.07-1.75-3.84.72.83,9,1.14,18.45,4.15,27C682.51,393.1,685.66,391.7,685.44,389.64Z" transform="translate(-10.96 -181.24)"/><path class="cls-19" d="M702.61,385.7c-1.59-10.93-4.11-21.45-4.77-32.54-.13-2.12-3.81-1.91-3.71.2.5,11,1.11,23.09,5.4,33.36C700.26,388.49,702.87,387.47,702.61,385.7Z" transform="translate(-10.96 -181.24)"/><path class="cls-19" d="M712.18,350.66c-.07-2.79-4.39-3.16-4.36-.33.1,10.3,1.62,21.87,5.72,31.37a1.63,1.63,0,0,0,3.07-.59C716.64,370.87,712.43,361,712.18,350.66Z" transform="translate(-10.96 -181.24)"/><path class="cls-19" d="M722.54,350.62c-.22-2.68-4.24-1.85-4.07.76.57,8.75,2.15,18.7,5.72,26.76a1.47,1.47,0,0,0,2.78-.53C727.39,368.61,723.27,359.62,722.54,350.62Z" transform="translate(-10.96 -181.24)"/><path class="cls-19" d="M732.25,347.17c-.61-2.2-4.11-1.56-3.5.65,2,7.23,2.59,14.58,3.79,21.95.27,1.65,2.91,1.53,2.94-.16A79.33,79.33,0,0,0,732.25,347.17Z" transform="translate(-10.96 -181.24)"/><path class="cls-19" d="M545.88,353.58c-6.26,10.53-6,23.47-6.11,35.32a1.24,1.24,0,0,0,2.46.19c.83-11.57-.28-24.15,5-34.85C547.59,353.48,546.31,352.86,545.88,353.58Z" transform="translate(-10.96 -181.24)"/></g><path class="cls-7" d="M733.65,347.17l.72-.29c16.76-179.92-147-172-184.27-115.8-29.12,44-9.66,126.89-8.41,132l.06.25C636.55,384,724.9,350.62,733.65,347.17Z" transform="translate(-10.96 -181.24)"/><path class="cls-20" d="M570.89,291.77s-1.57,29.32-13.32,29.21C549.65,320.91,541.48,310.5,570.89,291.77Z" transform="translate(-10.96 -181.24)"/><path class="cls-21" d="M552.79,275.45c5.46-.51,6.91,7.91,1.43,8.42S547.31,276,552.79,275.45Z" transform="translate(-10.96 -181.24)"/><path class="cls-21" d="M603.11,290.14c6.14-.57,7.78,8.9,1.61,9.48S596.94,290.72,603.11,290.14Z" transform="translate(-10.96 -181.24)"/><path class="cls-22" d="M573.83,331.78c-8,0-9,12.45-.94,12.45S581.87,331.78,573.83,331.78Z" transform="translate(-10.96 -181.24)"/><path class="cls-23" d="M735,306.23s-26.68,21.44-40,20.11-6-38.91-20-33.45-9.33,28-9.33,28L657,319.29s-2-28.29-2.67-43.63,13.39-42.67-19.46-35.33C609.46,246,539,235,543,212.33s26-6.85,33.32-16.76,15.18-15.91,28.6-12.58,26.22,4,33.15,0,21.6-1.09,26.93,7.79,22,10.21,27.33,10.88,16,4,18,12.67,6,11.33,12,14.67,8,17,8,24.82S745.69,280.12,735,306.23Z" transform="translate(-10.96 -181.24)"/><path class="cls-7" d="M376,247.33c-8-6.34-18.11,2.34-25.37,8.72a14.83,14.83,0,0,0-2.42,1.59,2,2,0,0,0-.73,1.14l-.67.56L351,269l-.79.61a12.65,12.65,0,0,1,5-1.5c1.93-.1,3.93.78,5.81,1.13,2.42.45,5.29.51,7-1.57,1.18-1.42.89-3.16.06-4.67-.41-.75-1-1.44-1.42-2.17a2,2,0,0,1-.38-1c4.31,1.21,10.86,3.09,13.65-1C382.83,254.5,379.4,250.05,376,247.33Z" transform="translate(-10.96 -181.24)"/><path class="cls-24" d="M346.77,259.34l-.44-1c-26,12-104,74.67-104,74.67L241,355l109.21-85.39L351,269Z" transform="translate(-10.96 -181.24)"/><path class="cls-25" d="M65.54,513.62c9.72,18.4,46.33,33,46.33,33,9.34,29.76,11.35,35.78,10.71,43.79C121.21,607.68,104.23,639,104.23,639l12.93.7S136.42,606,137.5,594.52c1.22-12.92-3.84-43.85-3.84-43.85,36,3.67,56.34-2.14,56.34-2.14s11.2,20.46,14.34,35.62c2.32,11.24,3,10,4.4,52.24L221.17,635s1.84-41.69-1.45-58.73c-3.61-18.68-5.51-32.49-5.51-32.49,25.37-8.91,32.59-23.93,34.3-28.73C241.59,516.54,157.3,533.28,65.54,513.62Z" transform="translate(-10.96 -181.24)"/><path d="M125,629.5,109.5,625,98,647.71s30.72,7.29,30.86.62-9.86-8.59-9.86-8.59Z" transform="translate(-10.96 -181.24)"/><path d="M224.17,624.93l-16.08,1.34-2.62,25.32s29.46.4,29.16-6.26c-.29-6.33-12-6.33-12-6.33Z" transform="translate(-10.96 -181.24)"/><path class="cls-7" d="M256.13,371.65l.22-.06s16.43-88-16.3-131.53c-40.54-53.86-204.53-51.91-177,126.68l.74.24C72.76,369.89,162.82,397.84,256.13,371.65Z" transform="translate(-10.96 -181.24)"/><path class="cls-20" d="M196.89,302.57s-8.54,32.71,4.38,36.71C210,342,222.59,333.42,196.89,302.57Z" transform="translate(-10.96 -181.24)"/><path class="cls-21" d="M218.38,285.13c-5.48,0-6.15,8.52-.64,8.52S223.89,285.13,218.38,285.13Z" transform="translate(-10.96 -181.24)"/><path class="cls-21" d="M166.65,300.43c-6.17,0-6.92,9.58-.72,9.58S172.84,300.43,166.65,300.43Z" transform="translate(-10.96 -181.24)"/><path class="cls-22" d="M170.09,346.8c-3.14,4.69-3.27,11.7,2.62,13.61s10.72-3.57,11.6-9Z" transform="translate(-10.96 -181.24)"/><path class="cls-15" d="M94.67,288s-6,25.33-.67,49.33l-12-1.22s.47-20.78-8.77-19.45S60,339.74,60,339.74,48.92,306.38,63.48,282l.52-.84C79.33,256.67,94.67,288,94.67,288Z" transform="translate(-10.96 -181.24)"/><path class="cls-26" d="M62.67,261.33c1.6.27,3.2.5,4.82.72Z" transform="translate(-10.96 -181.24)"/><path class="cls-13" d="M236.82,232.33c-8.27-12.64-35.57-44.84-94.29-34.2a7.74,7.74,0,0,1-7.77,6.75,6.28,6.28,0,0,1-6-3.54c-56.5,16.23-66.06,60-66.06,60l4.82.72C138.77,271.7,227.57,236.15,236.82,232.33Z" transform="translate(-10.96 -181.24)"/><path class="cls-19" d="M237.63,232l-.8.33c-9.25,3.81-98,39.37-169.34,29.72-1.61-.22-3.22-.45-4.82-.72,0,0-9,17.85-3.64,30.52,6,14.24,165.29-15,190.8-34.45C249.83,257.41,247.92,240.67,237.63,232Z" transform="translate(-10.96 -181.24)"/><path class="cls-19" d="M134.77,204.88a7.74,7.74,0,0,0,7.77-6.75c.68-4-1.41-8.34-6.63-8.34-6.66,0-9.31,7.09-7.17,11.55A6.28,6.28,0,0,0,134.77,204.88Z" transform="translate(-10.96 -181.24)"/><path class="cls-13" d="M72.33,383.76l-14-17.43S41,382.33,39,415.67,38.33,506.33,26.33,511c0,0,0,.34.1.93a100.48,100.48,0,0,1-14.9,2.69c-.84.08-.72,1.38.08,1.44A54.6,54.6,0,0,0,27,515c.25,1.16.59,2.51,1.06,4-.67.32-1.33.63-2,.87-4.06,1.53-9,2.94-13.21,1.23a.6.6,0,0,0-.53,1.06c3.42,2.06,7.26,1.8,11.05,1.08A43.17,43.17,0,0,0,29,521.8c.22.55.46,1.11.72,1.68-4.78,2.57-9.11,5.85-14.87,6.25-.71,0-.6,1.15.07,1.21,5.34.48,11.44-1.58,16.19-4.71a33.4,33.4,0,0,0,3,4.46,48,48,0,0,1-12.74,6.44c-.65.22-.27,1.26.37,1.13,4.89-1,10-2.55,13.86-5.82a29.15,29.15,0,0,0,2.44,2.34,48.33,48.33,0,0,1-9,7c-.66.38-.16,1.43.52,1.07a56.06,56.06,0,0,0,15.74-12.36c9.57-9.75,14.63-32.29,13-56.84C56.33,443.67,58.33,392.52,72.33,383.76Z" transform="translate(-10.96 -181.24)"/><path class="cls-24" d="M253.13,372.65c-93.31,26.19-183.37-1.75-192.3-4.67a44.42,44.42,0,0,0-2.24,7.15c-17.07,76.06,6.29,138.35,6.29,138.35l.66.14c91.77,19.66,176,2.92,183,1.48l.47-.1C268.52,447.46,257.31,389.71,253.13,372.65Z" transform="translate(-10.96 -181.24)"/><path class="cls-27" d="M75.11,515.75a104,104,0,0,0,14.32.78l2-.06a61.73,61.73,0,0,1-8.41-28.83c-.61-24.77,10.79-68.33,10.79-68.33L79,402.4S66.87,463.92,69,490.73A76.39,76.39,0,0,0,75.11,515.75Z" transform="translate(-10.96 -181.24)"/><path class="cls-17" d="M145.48,544.31c-4.63-2.8-13.54.73-17,3.8-.53.47-2.55,11.62-2.55,11.62s5.59,13.2,9.13,13.17c2.25,0,2.14-3.11,1.77-5.6,2.34,1.7,5.31,3.63,7.42,1.79,3.39-3-.65-6.72-2.3-9.71,2.15-.35,4.63-1,5.17-3.23.45-1.84-1.25-3.43-2.89-4.6C147,549.77,149.37,546.66,145.48,544.31Z" transform="translate(-10.96 -181.24)"/><path class="cls-24" d="M128.3,548s-42.78-26.13-43.74-65.23C84,458,95.36,414.46,95.36,414.46L80.55,397.54s-12.17,61.52-10.07,88.32S86.62,537,125.91,559.73" transform="translate(-10.96 -181.24)"/><path class="cls-13" d="M59.14,361.07S53,375,53.67,380.67c0,0,128.32,48.77,201.49,2.21,0,0,4.3-6.56-1.13-14.42,0,0-27.53,19.53-113.34,12.72C77.2,376.14,59.14,361.07,59.14,361.07Z" transform="translate(-10.96 -181.24)"/><text class="cls-28" transform="matrix(-1.01, -0.06, 0.06, -1, 441.96, 318.66)"> </text><text class="cls-28" transform="translate(429.13 317.85) rotate(-177.63) scale(1.01 1)"> </text><text class="cls-28" transform="matrix(-1.01, -0.02, 0.02, -1, 416.67, 317.33)"> </text><text class="cls-28" transform="translate(404.28 317.07) rotate(-179.8) scale(1.01 1)"> </text><text class="cls-28" transform="matrix(-1.01, 0.01, -0.01, -1, 391.77, 317.02)"> </text><text class="cls-28" transform="translate(379.41 317.2) rotate(178.09) scale(1.01 1)"> </text><text class="cls-28" transform="translate(366.67 317.62) rotate(176.86) scale(1.01 1)"> </text><text class="cls-28" transform="translate(353.8 318.33) rotate(175.4) scale(1.01 1)"> </text><text class="cls-28" transform="translate(340.81 319.37) rotate(173.48) scale(1.01 1)"> </text><text class="cls-28" transform="matrix(-1, 0.17, -0.17, -0.99, 327.56, 320.87)"> </text><text class="cls-28" transform="matrix(1, 0.12, -0.12, 0.99, 323.68, 339.75)">c</text><text class="cls-28" transform="matrix(1.01, 0.07, -0.06, 1, 342.55, 342.04)">h</text><text class="cls-28" transform="translate(367.66 343.64) rotate(1.29) scale(1.01 1)">a</text><text class="cls-28" transform="matrix(1.01, -0.01, 0.01, 1, 392.15, 344.14)">r</text><text class="cls-28" transform="translate(410.35 343.96) rotate(-1.7) scale(1.01 1)">i</text><text class="cls-28" transform="translate(421.38 343.66) rotate(-3) scale(1.01 1)">t</text><text class="cls-28" transform="translate(437.96 342.9) rotate(-5.53) scale(1.01 1)">y</text><text class="cls-28" transform="matrix(1, -0.17, 0.17, 0.99, 463.76, 340.24)"> </text><text class="cls-28" transform="matrix(-1, -0.14, 0.13, -0.99, 468.96, 321.7)"> </text><text class="cls-28" transform="translate(454.36 319.79) rotate(-174.78) scale(1.01 1)"> </text><text class="cls-28" transform="matrix(-1.01, -0.06, 0.06, -1, 441.49, 318.63)"> </text><text class="cls-28" transform="translate(428.67 317.82) rotate(-177.68) scale(1.01 1)"> </text><text x="-10.96" y="-181.24"></text></g></svg>