<svg id="Layer_1" data-name="Layer 1" xmlns="http://www.w3.org/2000/svg" viewBox="0 0 100 66.43"><defs><style>.cls-1{fill:#2aadff;}.cls-2{fill:#3dadff;}</style></defs><title>Mining4Charity Logo</title><path class="cls-1" d="M68.3,12.38a8.6,8.6,0,0,0-7.5,4.4l0-.07a8.59,8.59,0,0,0-16,4.26c0,2.89,1.79,4.92,3.38,6.71l.2.23C51.17,31.17,59.89,41.16,60,41.27a1.09,1.09,0,0,0,.82.37h0a1.09,1.09,0,0,0,.82-.37s8.73-10,11.77-13.39c1.81-2,3.49-4.2,3.49-6.92A8.6,8.6,0,0,0,68.3,12.38ZM60.8,38.89c-2.25-2.58-8.52-9.76-10.87-12.43l-.2-.23C48.27,24.59,46.9,23,46.9,21a6.41,6.41,0,1,1,12.81,0,8.6,8.6,0,0,0,8.59,8.59c.25,0,.49,0,.74,0ZM72.1,26.13A6.41,6.41,0,1,1,74.71,21,6.44,6.44,0,0,1,72.1,26.13Z" transform="translate(0 -0.16)"/><path d="M18.55,66.49v-3.3l-1.62,2.72h-.57l-1.61-2.65v3.23H13.55V61H14.6l2.06,3.42,2-3.42h1l0,5.5Z" transform="translate(0 -0.16)"/><path d="M21.05,61h1.27v5.5H21.05Z" transform="translate(0 -0.16)"/><path d="M28.67,61v5.5h-1l-2.74-3.34v3.34H23.63V61h1.05l2.73,3.34V61Z" transform="translate(0 -0.16)"/><path d="M30,61h1.27v5.5H30Z" transform="translate(0 -0.16)"/><path d="M37.6,61v5.5h-1l-2.74-3.34v3.34H32.55V61H33.6l2.73,3.34V61Z" transform="translate(0 -0.16)"/><path d="M42.62,63.66h1.16v2.23a3.32,3.32,0,0,1-1,.52,4,4,0,0,1-1.19.18A3.21,3.21,0,0,1,40,66.22a2.72,2.72,0,0,1-1.07-1,3,3,0,0,1,0-2.93,2.71,2.71,0,0,1,1.08-1,3.27,3.27,0,0,1,1.56-.37,3.4,3.4,0,0,1,1.31.24,2.6,2.6,0,0,1,1,.71l-.82.75A1.89,1.89,0,0,0,41.64,62a2,2,0,0,0-.93.22,1.58,1.58,0,0,0-.64.62,2,2,0,0,0,0,1.83,1.61,1.61,0,0,0,.63.62,1.88,1.88,0,0,0,.92.22,2.07,2.07,0,0,0,1-.24Z" transform="translate(0 -0.16)"/><path class="cls-1" d="M49.65,65.34h-.9v1.15H47.51V65.34h-3v-.86L47.14,61h1.34l-2.4,3.31h1.48v-1h1.2v1h.9Z" transform="translate(0 -0.16)"/><path d="M51.56,66.22a2.73,2.73,0,0,1-1.07-1,3,3,0,0,1,0-2.93,2.73,2.73,0,0,1,1.07-1,3.17,3.17,0,0,1,1.53-.37,3.21,3.21,0,0,1,1.29.25,2.59,2.59,0,0,1,1,.72l-.82.75A1.76,1.76,0,0,0,53.15,62a1.83,1.83,0,0,0-.91.22,1.59,1.59,0,0,0-.62.62,2,2,0,0,0,0,1.82,1.59,1.59,0,0,0,.62.62,1.84,1.84,0,0,0,.91.22,1.75,1.75,0,0,0,1.38-.65l.82.75a2.55,2.55,0,0,1-1,.73,3.24,3.24,0,0,1-1.3.25A3.15,3.15,0,0,1,51.56,66.22Z" transform="translate(0 -0.16)"/><path d="M61.25,61v5.5H60V64.24h-2.5v2.25H56.21V61h1.27v2.17H60V61Z" transform="translate(0 -0.16)"/><path d="M66.18,65.31H63.62l-.49,1.18h-1.3L64.28,61h1.26L68,66.49H66.66Zm-.4-1-.87-2.11L64,64.35Z" transform="translate(0 -0.16)"/><path d="M72.08,66.49,71,65H69.84v1.53H68.57V61H71a3.06,3.06,0,0,1,1.27.24A1.82,1.82,0,0,1,73.34,63a1.79,1.79,0,0,1-1.13,1.74l1.23,1.77Zm-.32-4.21a1.34,1.34,0,0,0-.87-.25h-1v1.92h1a1.32,1.32,0,0,0,.87-.25,1,1,0,0,0,0-1.42Z" transform="translate(0 -0.16)"/><path d="M74.35,61h1.27v5.5H74.35Z" transform="translate(0 -0.16)"/><path d="M78.06,62H76.3V61h4.79v1H79.33v4.46H78.06Z" transform="translate(0 -0.16)"/><path d="M84.31,64.54v1.95H83v-2L80.91,61h1.35l1.47,2.44L85.2,61h1.25Z" transform="translate(0 -0.16)"/><path class="cls-1" d="M66.87,43.62c-9.38.68-12.29-2.8-12.31-2.82a1.09,1.09,0,1,0-1.74,1.32c.14.18,3.51,4.45,14.2,3.68a4.51,4.51,0,0,1,2.3,2.06,1.84,1.84,0,0,1,0,1c-5.14,0-18.86,0-24.61,0h0a6.72,6.72,0,0,1-4.78-2L29.72,36.72a3,3,0,0,0-2.07-.87H26.09V26.41h7.62c4.06,0,9.34,7.09,12.49,11.32L47,38.87s.71,1,0,1.81c-.4.43-1.38.18-1.89,0-1.21-.51-2.68-2-4.24-3.6a36.46,36.46,0,0,0-5.57-4.94,1.09,1.09,0,0,0-1.21,1.81,34.82,34.82,0,0,1,5.22,4.65c1.79,1.83,3.34,3.41,5,4.09s3.37.55,4.34-.49a3.67,3.67,0,0,0,.14-4.6l-.85-1.14c-3.62-4.86-9.08-12.2-14.24-12.2h0c-3.9,0-14.92,0-14.92,0h0a1.09,1.09,0,0,0-1.09,1.08c-.17,11.92-.11,12,.31,12.41a1.1,1.1,0,0,0,.78.33h.33c5.41,0,7.63,0,8.53,0a.78.78,0,0,1,.55.23L38.37,48.46a8.89,8.89,0,0,0,6.33,2.62h0c5.88,0,20.09,0,24.94,0h0A1.67,1.67,0,0,0,71,50.35a3.74,3.74,0,0,0,.39-3.15C70.94,45.76,68.58,43.49,66.87,43.62Zm-43-7.78H19.8c0-1.87,0-6.18,0-9.45h4.06Z" transform="translate(0 -0.16)"/><path class="cls-1" d="M34,14.23V13.12a1.09,1.09,0,1,1,2.18,0v1.11h1.11a1.09,1.09,0,1,1,0,2.18H36.16v1.11a1.09,1.09,0,1,1-2.18,0V16.42H32.87a1.09,1.09,0,1,1,0-2.18Z" transform="translate(0 -0.16)"/><path class="cls-1" d="M79.55,49.21l-.79-.79a1.09,1.09,0,0,1,1.54-1.54l.79.79.79-.79a1.09,1.09,0,0,1,1.54,1.54l-.79.79.79.79a1.09,1.09,0,1,1-1.54,1.54l-.79-.79-.79.79A1.09,1.09,0,0,1,78.76,50Z" transform="translate(0 -0.16)"/><path class="cls-1" d="M43.42,58.1H39a1.09,1.09,0,0,1,0-2.18h4.41a1.09,1.09,0,0,1,0,2.18Z" transform="translate(0 -0.16)"/><path class="cls-1" d="M18.19,51.08a1.09,1.09,0,0,1-.77-1.86l2.34-2.33-2.34-2.34A1.09,1.09,0,0,1,19,43l3.12,3.12a1.09,1.09,0,0,1,0,1.54L19,50.77A1.09,1.09,0,0,1,18.19,51.08Z" transform="translate(0 -0.16)"/><path class="cls-1" d="M64.9,16.58l-.18.14a.22.22,0,0,0,.28.33l.16-.13a.22.22,0,0,0-.27-.35Z" transform="translate(0 -0.16)"/><path class="cls-1" d="M64.77,24.66a.22.22,0,0,0-.3.31l.17.15a.22.22,0,0,0,.29-.33Z" transform="translate(0 -0.16)"/><path class="cls-1" d="M63.33,22.16a.22.22,0,0,0-.42.1l.06.22a.22.22,0,0,0,.21.16h.06a.22.22,0,0,0,.15-.27Z" transform="translate(0 -0.16)"/><path class="cls-1" d="M63.34,19a.22.22,0,0,0-.28.13l-.07.22a.22.22,0,0,0,.15.27h.06a.22.22,0,0,0,.21-.15l.07-.2A.22.22,0,0,0,63.34,19Z" transform="translate(0 -0.16)"/><path class="cls-1" d="M63.87,23.52a.22.22,0,0,0-.38.22l.12.19a.22.22,0,0,0,.37-.23Z" transform="translate(0 -0.16)"/><path class="cls-1" d="M67.54,26l-.21,0a.22.22,0,1,0-.08.43l.22,0h0a.22.22,0,0,0,0-.43Z" transform="translate(0 -0.16)"/><path class="cls-1" d="M67.81,15.44l-.23,0a.22.22,0,0,0,0,.43h0l.21,0a.22.22,0,0,0,0-.43Z" transform="translate(0 -0.16)"/><path class="cls-1" d="M73.71,19.72l-.05-.22a.22.22,0,1,0-.42.12l.05.2a.22.22,0,0,0,.21.17h0A.22.22,0,0,0,73.71,19.72Z" transform="translate(0 -0.16)"/><path class="cls-1" d="M66.15,25.6,66,25.51a.22.22,0,1,0-.2.39l.2.1.09,0a.22.22,0,0,0,.09-.42Z" transform="translate(0 -0.16)"/><path class="cls-1" d="M63,20.48a.22.22,0,0,0-.23.21c0,.08,0,.15,0,.23a.22.22,0,0,0,.22.22h0a.22.22,0,0,0,.22-.22c0-.07,0-.14,0-.21A.22.22,0,0,0,63,20.48Z" transform="translate(0 -0.16)"/><path class="cls-1" d="M66.27,15.8l-.21.09a.22.22,0,0,0,.09.42l.09,0,.19-.08a.22.22,0,0,0-.16-.41Z" transform="translate(0 -0.16)"/><path class="cls-1" d="M63.8,17.72l-.13.19a.22.22,0,0,0,.36.24l.12-.17a.22.22,0,1,0-.35-.26Z" transform="translate(0 -0.16)"/><path class="cls-1" d="M72.9,23.67a.22.22,0,0,0-.3.06l-.12.17a.22.22,0,1,0,.36.25L73,24A.22.22,0,0,0,72.9,23.67Z" transform="translate(0 -0.16)"/><path class="cls-1" d="M73.14,18.25l-.12-.2a.22.22,0,0,0-.37.23l.11.18a.22.22,0,0,0,.19.11l.11,0A.22.22,0,0,0,73.14,18.25Z" transform="translate(0 -0.16)"/><path class="cls-1" d="M73.47,22.26a.22.22,0,0,0-.27.15l-.06.2a.22.22,0,0,0,.14.28h.07a.22.22,0,0,0,.21-.15l.07-.22A.22.22,0,0,0,73.47,22.26Z" transform="translate(0 -0.16)"/><path class="cls-1" d="M72,16.84a.22.22,0,1,0-.29.32l.15.14a.22.22,0,1,0,.31-.31Z" transform="translate(0 -0.16)"/><path class="cls-1" d="M73.63,20.75a.22.22,0,0,0-.22.22c0,.07,0,.14,0,.21a.22.22,0,0,0,.21.23h0a.22.22,0,0,0,.22-.21c0-.08,0-.15,0-.23A.22.22,0,0,0,73.63,20.75Z" transform="translate(0 -0.16)"/><path class="cls-1" d="M69,26l-.21,0a.22.22,0,0,0,0,.44h0l.22,0a.22.22,0,0,0,.19-.25A.22.22,0,0,0,69,26Z" transform="translate(0 -0.16)"/><path class="cls-1" d="M70.41,25.62l-.19.08a.22.22,0,0,0,.08.42l.08,0,.21-.09a.22.22,0,0,0-.18-.4Z" transform="translate(0 -0.16)"/><path class="cls-1" d="M69.39,15.53l-.22,0a.22.22,0,0,0-.07.43l.21,0h0a.22.22,0,0,0,0-.43Z" transform="translate(0 -0.16)"/><path class="cls-1" d="M71.64,24.84l-.16.13a.22.22,0,0,0,.27.34l.17-.14a.22.22,0,0,0-.28-.33Z" transform="translate(0 -0.16)"/><path class="cls-1" d="M70.89,16.06l-.2-.1a.22.22,0,0,0-.19.39l.19.1.1,0a.22.22,0,0,0,.1-.41Z" transform="translate(0 -0.16)"/><path class="cls-1" d="M68.3,16.13A4.83,4.83,0,1,0,73.13,21,4.84,4.84,0,0,0,68.3,16.13Zm0,9.23A4.4,4.4,0,1,1,72.7,21,4.4,4.4,0,0,1,68.3,25.36Z" transform="translate(0 -0.16)"/><polygon class="cls-2" points="70.99 23.03 70.97 18.51 70.23 18.51 68.31 21.76 66.36 18.51 65.61 18.51 65.61 23 64.44 23.04 64.44 23.42 66.47 23.42 66.47 23.02 66.47 20.21 68.09 22.86 68.5 22.86 70.11 20.16 70.12 23.03 70.12 23.42 72.16 23.42 72.16 23.05 70.99 23.03"/><path d="M4.62,34.41l-2.06-.78,1.31,1.65-.14.36L1.7,36l2,.77-.28.74L0,36.22l.25-.66,2.62-.47L1.22,33l.25-.65,3.43,1.3Z" transform="translate(0 -0.16)"/><path d="M5.59,30.44,4.84,32l.56.64L5,33.38,2.45,30.3l.37-.75,4,.14-.39.8Zm-.7,0L3.38,30.3l1,1.14Z" transform="translate(0 -0.16)"/><path d="M6.43,27.55l.19.68.8.47L7,29.44,3.84,27.57l.43-.73,1.47.87-.65-2.27.48-.81.63,2.14,2.57-.35-.5.85Z" transform="translate(0 -0.16)"/><path d="M10,23.44l.56.39L9,26.16,6,24.07,7.54,21.8l.56.39L7,23.77l.65.45,1-1.4.54.38-1,1.4.7.48Z" transform="translate(0 -0.16)"/><path d="M12.83,19.86l-1.11,1.29.38.76-.57.66L9.83,18.93l.55-.63,3.85,1.15-.58.67Zm-.66-.22-1.44-.48.68,1.36Z" transform="translate(0 -0.16)"/><path d="M13,15.5l1.22-1.13a2.33,2.33,0,0,1,.93-.55,1.71,1.71,0,0,1,1,0,2,2,0,0,1,1.31,1.41,1.71,1.71,0,0,1-.09,1,2.34,2.34,0,0,1-.62.88l-1.22,1.13Zm3.21,1.07a1.23,1.23,0,0,0,.43-.82,1.22,1.22,0,0,0-1.13-1.22,1.23,1.23,0,0,0-.85.37l-.57.53,1.55,1.67Z" transform="translate(0 -0.16)"/><path d="M16.31,12.49,17,12l2.33,2.83-.66.54Z" transform="translate(0 -0.16)"/><path d="M18.84,11.36l.58.78,1.36-1,.41.55-1.36,1,.79,1.07-.68.5-2.18-2.95L20,9.67l.41.55Z" transform="translate(0 -0.16)"/><path d="M21.69,9.36l.52.82,1.43-.92.37.57-1.43.92.72,1.12-.71.46-2-3.08,2.33-1.5.37.57Z" transform="translate(0 -0.16)"/><path d="M27.54,8.6l.33.6-2.49,1.37L23.61,7.36,26,6l.33.6-1.69.93.38.7,1.49-.82.32.58-1.49.82.41.74Z" transform="translate(0 -0.16)"/><path d="M30.52,8l-1.07-.63,0,0-.67.31.42.93-.77.35L26.87,5.6l1.44-.66a2,2,0,0,1,.84-.21,1.21,1.21,0,0,1,1.16.75,1.19,1.19,0,0,1-.2,1.37l1.24.73ZM29.16,5.5a.89.89,0,0,0-.6.09l-.63.29L28.47,7l.63-.29a.88.88,0,0,0,.46-.39.58.58,0,0,0,0-.51A.58.58,0,0,0,29.16,5.5Z" transform="translate(0 -0.16)"/><path d="M34.29,5.76l.24.64-2.66,1L30.59,3.95l2.6-1,.24.64-1.81.67.28.75,1.6-.59.23.62-1.6.59.29.8Z" transform="translate(0 -0.16)"/><path d="M37.33,1.76l1,3.53-.67.19L35.3,3.83,35.91,6l-.81.23-1-3.53.67-.19,2.36,1.64L36.52,2Z" transform="translate(0 -0.16)"/><path d="M39.81,4.78A1.81,1.81,0,0,1,39,4.26a1.86,1.86,0,0,1-.44-.91,1.86,1.86,0,0,1,.06-1,1.82,1.82,0,0,1,.57-.8,2.11,2.11,0,0,1,1-.44,2.14,2.14,0,0,1,.88,0,1.73,1.73,0,0,1,.73.35l-.44.6a1.17,1.17,0,0,0-1-.24,1.23,1.23,0,0,0-.57.27,1.06,1.06,0,0,0-.33.49,1.23,1.23,0,0,0,0,.63,1.22,1.22,0,0,0,.27.57,1.06,1.06,0,0,0,.49.33,1.23,1.23,0,0,0,.62,0,1.17,1.17,0,0,0,.82-.61l.63.39a1.7,1.7,0,0,1-.54.6,2.16,2.16,0,0,1-.81.33A2.1,2.1,0,0,1,39.81,4.78Z" transform="translate(0 -0.16)"/><path d="M45.56,3.37l.08.68-2.82.35L42.37.76,45.12.42l.08.68-1.91.24.1.79,1.69-.21.08.66-1.69.21.1.84Z" transform="translate(0 -0.16)"/><path d="M53.18.16,52,3.84h-.91l-.84-2.47-.8,2.49h-.91L47.32.23h.88l.86,2.57L49.89.2h.79l.87,2.59L52.37.17Z" transform="translate(0 -0.16)"/><path d="M53.9.32l.85.06L54.47,4,53.63,4Z" transform="translate(0 -0.16)"/><path d="M56.43,1.24,55.27,1.1l.09-.69,3.17.4-.09.69-1.16-.15-.37,3-.84-.11Z" transform="translate(0 -0.16)"/><path d="M62.46,1.58l-.73,3.59L60.9,5l.3-1.47L59.57,3.2l-.3,1.47-.83-.17L59.17.91l.83.17L59.71,2.5l1.63.33.29-1.42Z" transform="translate(0 -0.16)"/><path d="M66,5.05l-.39,1.24L64.8,6l.4-1.25-.64-2.68.86.27.44,1.85L67.28,3l.79.25Z" transform="translate(0 -0.16)"/><path d="M67.85,6.88a1.83,1.83,0,0,1-.41-.9,2,2,0,0,1,.73-1.8,1.83,1.83,0,0,1,.92-.36A2.27,2.27,0,0,1,71,4.59a1.87,1.87,0,0,1-1.24,3.06,2.12,2.12,0,0,1-1-.16A2.15,2.15,0,0,1,67.85,6.88Zm1.73,0a1.07,1.07,0,0,0,.54-.23,1.31,1.31,0,0,0,.46-1.13A1.08,1.08,0,0,0,70.35,5a1.23,1.23,0,0,0-1.09-.44,1.07,1.07,0,0,0-.54.23,1.31,1.31,0,0,0-.46,1.13,1.07,1.07,0,0,0,.23.54,1.23,1.23,0,0,0,1.09.44Z" transform="translate(0 -0.16)"/><path d="M71.63,8.29A1.67,1.67,0,0,1,71.81,7l.93-1.83.76.38-.91,1.8q-.45.88.28,1.25a.77.77,0,0,0,.65.06A1.11,1.11,0,0,0,74,8.08l.91-1.8.75.38-.93,1.83a1.67,1.67,0,0,1-1,.91,1.65,1.65,0,0,1-1.29-.17A1.66,1.66,0,0,1,71.63,8.29Z" transform="translate(0 -0.16)"/><path d="M76.69,11.52l-.07-1.24,0,0L76,9.87l-.53.87-.72-.44,1.91-3.13L78,8a2,2,0,0,1,.64.58,1.25,1.25,0,0,1,.23.68,1.27,1.27,0,0,1-.2.7,1.2,1.2,0,0,1-1.25.59L77.47,12ZM78,9a.89.89,0,0,0-.41-.44L77,8.2,76.31,9.3l.59.36a.88.88,0,0,0,.58.16A.66.66,0,0,0,78,9Z" transform="translate(0 -0.16)"/><path d="M79.8,13.44a1.82,1.82,0,0,1-.15-1,2,2,0,0,1,1.19-1.55,1.82,1.82,0,0,1,1-.1,2.27,2.27,0,0,1,1.54,1.08,1.72,1.72,0,0,1,.22.78l-.74.07a1.17,1.17,0,0,0-.47-.9,1.23,1.23,0,0,0-.57-.25,1.06,1.06,0,0,0-.58.08,1.31,1.31,0,0,0-.74,1,1.06,1.06,0,0,0,.08.58,1.23,1.23,0,0,0,.39.49,1.17,1.17,0,0,0,1,.22l.13.73a1.7,1.7,0,0,1-.81,0,2.16,2.16,0,0,1-.79-.39A2.11,2.11,0,0,1,79.8,13.44Z" transform="translate(0 -0.16)"/><path d="M82.7,15.76a1.83,1.83,0,0,1-.08-1,2,2,0,0,1,1.3-1.44,1.83,1.83,0,0,1,1,0,2.27,2.27,0,0,1,1.53,1.38,1.87,1.87,0,0,1-2.21,2.45,2.27,2.27,0,0,1-1.53-1.38Zm1.62.62a1.07,1.07,0,0,0,.58,0,1.31,1.31,0,0,0,.81-.9,1.07,1.07,0,0,0,0-.58,1.23,1.23,0,0,0-.87-.79,1.07,1.07,0,0,0-.58,0,1.31,1.31,0,0,0-.81.9,1.07,1.07,0,0,0,0,.58,1.23,1.23,0,0,0,.87.79Z" transform="translate(0 -0.16)"/><path d="M87.49,20.79l1.62-1.49L87,19.72l-.26-.28.57-2-1.59,1.46-.54-.59,2.7-2.48.47.52-.75,2.55,2.59-.54.47.51L88,21.37Z" transform="translate(0 -0.16)"/><path d="M92.78,21.79a1.21,1.21,0,0,1-.47,1.3,1.28,1.28,0,0,1-.68.28,1.23,1.23,0,0,1-.7-.16,2.07,2.07,0,0,1-.64-.57l-.45-.59-.8.62L88.51,22l2.91-2.23,1,1.26A2,2,0,0,1,92.78,21.79Zm-1.49.75A.66.66,0,0,0,92,22a.89.89,0,0,0-.22-.56l-.42-.55-1,.78.42.55A.89.89,0,0,0,91.29,22.54Z" transform="translate(0 -0.16)"/><path d="M91.28,25.08a1.68,1.68,0,0,1,.8-1l1.72-1.12.46.71-1.69,1.1q-.83.54-.38,1.22a.77.77,0,0,0,.53.38,1.11,1.11,0,0,0,.74-.23L95.16,25l.46.7L93.9,26.82a1.73,1.73,0,0,1-2.61-1.74Z" transform="translate(0 -0.16)"/><path d="M95.87,27.55l-.57-1,.6-.33L97.46,29l-.6.33-.57-1-2.6,1.44L93.27,29Z" transform="translate(0 -0.16)"/><path d="M96.23,33.39l-.62.29-1.2-2.57,3.32-1.55,1.17,2.51-.62.29-.82-1.75-.72.34.72,1.54-.6.28-.72-1.54-.77.36Z" transform="translate(0 -0.16)"/><path d="M96.69,36.43l.7-1,0,0-.26-.69-1,.36-.3-.79,3.43-1.3.56,1.48a2,2,0,0,1,.15.85,1.21,1.21,0,0,1-.83,1.11,1.2,1.2,0,0,1-1.35-.29L97,37.29Zm2.55-1.2a.89.89,0,0,0-.05-.6L98.94,34l-1.19.45.25.65a.88.88,0,0,0,.36.48.66.66,0,0,0,.88-.34Z" transform="translate(0 -0.16)"/></svg>